# xmcd
#
# Track frame offsets: 
#        150
#        21570
#        38455
#        55675
#        70011
#        84699
#        100413
#        114933
#        126860
#        141118
#        150364
#        170154
#        182532
#        196779
#        206925
#        220892
#        233419
#
# Disc length: 3230 seconds
#
# Revision: 0
# Processed by: cddbd v1.5.2PL0 Copyright (c) Steve Scherf et al.
# Submitted via: ExactAudioCopy v1.0b6
#
DISCID=e40c9c11
DTITLE=Various Artist - To nejlepší z české country
DYEAR=1900
DGENRE=Country
TTITLE0=Bobr - Všichni jsou už v Mexiku
TTITLE1=J.E.Matuška - Jó, třešně zrály
TTITLE2=M.Smolka - Pověste ho vejš
TTITLE3=J.E.Matuška - Tisích mil
TTITLE4=T.Linka - Blízko Little Big Hornu
TTITLE5=J.E.Matuška - Sbohem lásko
TTITLE6=H.Lounová - Červená řeka
TTITLE7=M.Konopník - Rosa na kolejích
TTITLE8=J.E.Matuška - Růže z Texasu
TTITLE9=J.Vyčítal - Za chvili už budu v dáli
TTITLE10=STS - Jižní Eskadrona
TTITLE11=J.E.Matuška - Rikatádo
TTITLE12=L.Jindra - Frankie dlouhán
TTITLE13=L.Malár - Jižní kříž
TTITLE14=P.Dydovič - Ovečka
TTITLE15=L.Jindra - Zelené pláně
TTITLE16=M.Kohout - Aljaška
EXTD=
EXTT0=
EXTT1=
EXTT2=
EXTT3=
EXTT4=
EXTT5=
EXTT6=
EXTT7=
EXTT8=
EXTT9=
EXTT10=
EXTT11=
EXTT12=
EXTT13=
EXTT14=
EXTT15=
EXTT16=
PLAYORDER=
